<?xml version="1.0" encoding="UTF-8"?><svg id="uuid-16a0a41b-3773-4f2d-96d8-ce39d3a8dbad" xmlns="http://www.w3.org/2000/svg" viewBox="0 0 125.8397422 65.5867032"><defs><style>.uuid-2e2e0067-5bd1-46e6-9766-2bd5f1c9d57e{fill:#fff;}.uuid-fd3180d2-9de7-4a4e-9cd8-c534aab77292{fill:#ff6b00;}.uuid-605f8448-bce5-4231-ab68-236ab057f6a2{fill:#ff9015;}</style></defs><g><g><path class="uuid-605f8448-bce5-4231-ab68-236ab057f6a2" d="M5.0259633,41.9392065c-4.3228807,4.322776-4.3228791,11.3964181,.0000037,15.7192047v.0000479c4.3226913,4.3227865,11.3963411,4.3227951,15.7192218,.0000191l10.6727939-10.6728675c-3.9849475-1.5481359-8.6984163-.7275743-11.9041029,2.4730798l-3.4844586,3.4843078c-1.7040322,1.7042201-4.5838472,1.7039294-6.2880716-.0002948-1.7042244-1.7042242-1.7038422-4.583366,.0003815-6.2875861l13.5003385-13.5670836c5.2154872-5.4152214,6.7539017-11.3713334,6.8523132-16.3107726L5.0259633,41.9392065Z"/><path class="uuid-fd3180d2-9de7-4a4e-9cd8-c534aab77292" d="M22.3174942,59.2308313c-2.8030372,2.8030314-6.5528659,4.0809541-10.2295555,3.8623455,5.2084051,3.7348013,12.5150669,3.2784554,17.1919651-1.3982895l1.249113-1.249254c3.1882633-3.2047226,4.005432-7.9084687,2.4606969-11.8871908l-10.6722195,10.6723888Z"/><path class="uuid-fd3180d2-9de7-4a4e-9cd8-c534aab77292" d="M34.205199,0L5.8486824,28.5408831C1.1916965,33.1978593-.6829293,39.5979283,.2202094,45.6601623c.6289599-1.9355101,1.6986707-3.7578643,3.2336399-5.2928782L31.9920052,11.7453143c3.0155532-3.0266629,3.9554028-7.5732096,2.3223407-11.5212964-.0555101-.134201-.08732-.2041535-.08732-.2041535-.00785-.0067013-.0141684-.0131632-.0218269-.0198644Z"/></g><g><path class="uuid-2e2e0067-5bd1-46e6-9766-2bd5f1c9d57e" d="M43.7493097,35.0116605h3.7272415l-.0000003,.0000012c-.2067227,.6871559-.8394557,1.1575508-1.5570332,1.1575508h-.7300175v1.3085737h1.9483068v1.157552h-1.9483068v1.4216291h2.2682788v1.157552h-3.7084693v-6.2028588Zm1.6753709-1.7316877h1.5059988l-.3590818,.5074032c-.3887367,.5493074-1.0198429,.8758377-1.6927878,.8758377h-.0000011l.5458718-1.3832409Z"/><path class="uuid-2e2e0067-5bd1-46e6-9766-2bd5f1c9d57e" d="M53.8572192,40.7817029c-.7622801,.4138333-1.4777349,.5268886-2.1366621,.5268886-2.1459428,0-3.2566696-1.3178544-3.2566696-3.1343336,0-1.7789347,1.3178544-3.2284058,3.4167611-3.2284058,.6964717,0,1.2613267,.1130554,1.6943541,.2919191v1.3174325c-.5178189-.2729359-1.0731823-.4138333-1.6565987-.4138333-1.3366266,0-1.9202539,.9504244-1.9202539,2.0139042,0,1.1579739,.7342271,1.9577984,1.9012707,1.9577984,.6496465,0,1.1014462-.1881444,1.5625265-.4610803l.3952719,1.12971Z"/><path class="uuid-2e2e0067-5bd1-46e6-9766-2bd5f1c9d57e" d="M54.6091639,38.1274328c0-1.8827094,1.3083628-3.1815806,3.2003529-3.1815806,1.8917791,0,3.2001419,1.2988712,3.2001419,3.1815806,0,1.8822875-1.3083628,3.1811588-3.2001419,3.1811588-1.8919901,0-3.2003529-1.2988712-3.2003529-3.1811588Zm4.8662322,0c0-1.3178544-.6869801-1.9860623-1.6658793-1.9860623s-1.6660902,.6682079-1.6660902,1.9860623c0,1.3174325,.687191,1.9856404,1.6660902,1.9856404s1.6658793-.6682079,1.6658793-1.9856404Z"/><path class="uuid-2e2e0067-5bd1-46e6-9766-2bd5f1c9d57e" d="M62.1849284,35.0116605h1.4401904v5.0453068h2.1269596v1.157552h-3.56715v-6.2028588Z"/><path class="uuid-2e2e0067-5bd1-46e6-9766-2bd5f1c9d57e" d="M66.5987281,35.0116605h3.7270306l-.0000003,.0000012c-.2065904,.6871322-.8392448,1.1575508-1.5567616,1.1575508h-.7300783v1.3085737h1.9480959v1.157552h-1.9480959v1.4216291h2.2682788v1.157552h-3.7084693v-6.2028588Z"/><path class="uuid-2e2e0067-5bd1-46e6-9766-2bd5f1c9d57e" d="M73.552899,39.6427122c.4142551,.2822166,.8850379,.470361,1.4309098,.470361,.4235358,0,.8850379-.1408974,.8850379-.5458718,0-1.0259353-2.6357088-.8938968-2.6357088-2.80487,0-.9504244,.7622801-1.8164792,2.1366621-1.8164792,.687191,0,1.2613267,.1505999,1.6376155,.3387443v1.2895906c-.5741357-.2822166-1.082463-.4328165-1.5903685-.4328165-.3484468,0-.6496465,.122336-.6496465,.4986248,0,.960127,2.6357088,.8095271,2.6357088,2.80487,0,1.1482713-1.0356378,1.8637262-2.3627729,1.8637262-.7340162,0-1.4967181-.197425-2.0333093-.5834163l.5458718-1.082463Z"/><path class="uuid-2e2e0067-5bd1-46e6-9766-2bd5f1c9d57e" d="M78.8327535,40.1885841c-.1978469-.3484468-.3011998-.8095271-.3011998-1.3461182v-3.8308053h1.4401904v3.7460138c0,.3201829,.0658083,.6023995,.1881444,.8095271,.2164082,.3577274,.6116802,.5458718,1.1292882,.5458718,.5180298,0,.9133018-.1881444,1.12971-.5458718,.122336-.2071276,.1881444-.4893441,.1881444-.8095271v-3.7460138h1.4401904v3.8308053c0,.5365912-.1033529,.9976715-.3011998,1.3461182-.4328165,.7719826-1.2988712,1.1200075-2.4568451,1.1200075-1.157552,0-2.0236068-.3480249-2.4564232-1.1200075Z"/><path class="uuid-2e2e0067-5bd1-46e6-9766-2bd5f1c9d57e" d="M85.4106356,35.0116605h1.7321095c.5551525,0,1.035216,.0755109,1.4212072,.2539527,.6964717,.3201829,1.082463,.9415656,1.082463,1.8261817,0,.7154549-.3104804,1.5152794-1.2895906,1.8827094-.3577274,.1316167-.7998246,.2067057-1.3456964,.2067057h-.1603024v2.0333093h-1.4401904v-6.2028588Zm1.6848625,3.0119976c.2446721,0,.4517996-.0282638,.612102-.1033529,.3011998-.1413192,.4420971-.4332383,.4420971-.8285103,0-.3201829-.1316167-.6213827-.4235358-.7905439-.1598805-.0940722-.3762888-.1320385-.6589272-.1320385h-.2164082v1.8544456h.2446721Z"/><path class="uuid-2e2e0067-5bd1-46e6-9766-2bd5f1c9d57e" d="M90.821685,35.0116605h3.7274524l-.0000003,.0000012c-.2065904,.6871322-.8392448,1.1575508-1.5567616,1.1575508h-.7305001v1.3085737h1.9485177v1.157552h-1.9485177v1.4216291h2.2687007v1.157552h-3.7088911v-6.2028588Zm1.6755818-1.7316877h1.5059988l-.358838,.507168c-.3887519,.5494472-1.0199637,.8760729-1.6930315,.8760729h-.0000011l.5458718-1.3832409Z"/><path class="uuid-2e2e0067-5bd1-46e6-9766-2bd5f1c9d57e" d="M95.771654,35.0116605h1.9957648c.5365912,0,.9504244,.0755109,1.279888,.2071276,.7627019,.3104804,1.0541991,.9318631,1.0541991,1.6190541,0,.7998246-.5268886,1.3646796-1.1858158,1.5718071v.0189832c.1881444,.1126335,.470361,.4420971,.7905439,1.0259353l.9791101,1.7599515h-1.6380373l-.7529994-1.4119266c-.3197611-.6023995-.5268886-.8280884-.6682079-.8563522h-.4142551v2.2682788h-1.4401904v-6.2028588Zm1.8919901,2.7766061c.2636552,0,.4235358-.0468252,.564855-.122336,.2256889-.1316167,.3767106-.3670081,.3767106-.687191,0-.3104804-.1603024-.5834163-.4332383-.715033-.122336-.0565277-.2636552-.094494-.4986248-.094494h-.4615021v1.6190541h.4517996Z"/><path class="uuid-2e2e0067-5bd1-46e6-9766-2bd5f1c9d57e" d="M101.6252224,35.0116605h1.4401904v6.2028588h-1.4401904v-6.2028588Z"/><path class="uuid-2e2e0067-5bd1-46e6-9766-2bd5f1c9d57e" d="M104.4764957,35.0116605h3.7274524l-.0000003,.0000012c-.2065904,.6871322-.8392448,1.1575508-1.5567616,1.1575508h-.7305001v1.3085737h1.9485177v1.157552h-1.9485177v1.4216291h2.2687007v1.157552h-3.7088911v-6.2028588Z"/><path class="uuid-2e2e0067-5bd1-46e6-9766-2bd5f1c9d57e" d="M109.6808394,40.1885841c-.1978469-.3484468-.3011998-.8095271-.3011998-1.3461182v-3.8308053h1.4401904v3.7460138c0,.3201829,.0658083,.6023995,.1881444,.8095271,.2164082,.3577274,.6116802,.5458718,1.1292882,.5458718,.5180298,0,.9133018-.1881444,1.12971-.5458718,.122336-.2071276,.1881444-.4893441,.1881444-.8095271v-3.7460138h1.4401904v3.8308053c0,.5365912-.1033529,.9976715-.3011998,1.3461182-.4328165,.7719826-1.2988712,1.1200075-2.4568451,1.1200075-1.157552,0-2.0236068-.3480249-2.4564232-1.1200075Z"/><path class="uuid-2e2e0067-5bd1-46e6-9766-2bd5f1c9d57e" d="M116.2587215,35.0116605h1.9957648c.5361693,0,.9504244,.0755109,1.279888,.2071276,.7622801,.3104804,1.0541991,.9318631,1.0541991,1.6190541,0,.7998246-.5268886,1.3646796-1.1858158,1.5718071v.0189832c.1881444,.1126335,.470361,.4420971,.7905439,1.0259353l.9791101,1.7599515h-1.6380373l-.7529994-1.4119266c-.3197611-.6023995-.5268886-.8280884-.6682079-.8563522h-.4142551v2.2682788h-1.4401904v-6.2028588Zm1.8919901,2.7766061c.2636552,0,.4235358-.0468252,.564855-.122336,.2261107-.1316167,.3762888-.3670081,.3762888-.687191,0-.3104804-.1598805-.5834163-.4328165-.715033-.122336-.0565277-.2636552-.094494-.4986248-.094494h-.4615021v1.6190541h.4517996Z"/><path class="uuid-2e2e0067-5bd1-46e6-9766-2bd5f1c9d57e" d="M122.1122898,35.0116605h3.7274524l-.0000003,.0000012c-.2065904,.6871322-.8392448,1.1575508-1.5567616,1.1575508h-.7305001v1.3085737h1.9485177v1.157552h-1.9485177v1.4216291h2.2687007v1.157552h-3.7088911v-6.2028588Z"/><path class="uuid-2e2e0067-5bd1-46e6-9766-2bd5f1c9d57e" d="M43.7493097,45.8722973h2.2402259c2.1742066,0,3.4543056,1.1672545,3.4543056,3.0495421,0,1.9577984-1.5059988,3.1533168-3.6049055,3.1533168h-2.089626v-6.2028588Zm2.1271705,5.0453068c1.4401904,0,2.0330984-.9318631,2.0330984-1.9485177,0-1.204799-.7247355-1.9392371-2.0613622-1.9392371h-.6587163v3.8877548h.6869801Z"/><path class="uuid-2e2e0067-5bd1-46e6-9766-2bd5f1c9d57e" d="M50.6191109,45.8722973h3.7272415l-.0000003,.0000012c-.2067227,.6871559-.8394557,1.1575508-1.5570332,1.1575508h-.7300175v1.3085737h1.9483068v1.157552h-1.9483068v1.4216291h2.2682788v1.157552h-3.7084693v-6.2028588Z"/><path class="uuid-2e2e0067-5bd1-46e6-9766-2bd5f1c9d57e" d="M62.4679886,51.6423396c-.7622801,.4138333-1.4777349,.5268886-2.1366621,.5268886-2.1459428,0-3.2566696-1.3178544-3.2566696-3.1343336,0-1.7789347,1.3178544-3.2284058,3.4167611-3.2284058,.6964717,0,1.2613267,.1130554,1.6943541,.2919191v1.3174325c-.5178189-.2729359-1.0731823-.4138333-1.6565987-.4138333-1.3366266,0-1.9202539,.9504244-1.9202539,2.0139042,0,1.1579739,.7342271,1.9577984,1.9012707,1.9577984,.6496465,0,1.1014462-.1881444,1.5625265-.4610803l.3952719,1.12971Z"/><path class="uuid-2e2e0067-5bd1-46e6-9766-2bd5f1c9d57e" d="M63.2199334,48.9880695c0-1.8827094,1.3083628-3.1815806,3.2003529-3.1815806,1.8915682,0,3.2001419,1.2988712,3.2001419,3.1815806,0,1.8822875-1.3085737,3.1811588-3.2001419,3.1811588-1.8919901,0-3.2003529-1.2988712-3.2003529-3.1811588Zm4.8662322,0c0-1.3178544-.687191-1.9860623-1.6658793-1.9860623-.9791101,0-1.6660902,.6682079-1.6660902,1.9860623,0,1.3174325,.6869801,1.9856404,1.6660902,1.9856404,.9786883,0,1.6658793-.6682079,1.6658793-1.9856404Z"/><path class="uuid-2e2e0067-5bd1-46e6-9766-2bd5f1c9d57e" d="M70.7956978,45.8722973h1.2988712l1.5532458,2.164926c.1881444,.2636552,.3387443,.4893441,.4800635,.7340162h.0189832c.1126335-.2256889,.2632334-.4893441,.4517996-.7812632l1.3929434-2.117679h1.3081519v6.2028588h-1.4397686v-3.1625974c0-.2256889,0-.4800635,.0092807-.6682079h-.0092807c-.0565277,.1316167-.3109023,.4986248-.4142551,.6589272l-1.007374,1.5245601h-.6306634l-1.1482713-1.5810878c-.1316167-.1788637-.2822166-.3670081-.4142551-.6023995h-.0185613c.0092807,.2071276,.0092807,.4517996,.0092807,.6209608v3.2098445h-1.4401904v-6.2028588Z"/><path class="uuid-2e2e0067-5bd1-46e6-9766-2bd5f1c9d57e" d="M78.7099956,45.8722973h1.2992931l1.5528239,2.164926c.1881444,.2636552,.3387443,.4893441,.4800635,.7340162h.0189832c.1126335-.2256889,.2632334-.4893441,.4517996-.7812632l1.3929434-2.117679h1.3081519v6.2028588h-1.4397686v-3.1625974c0-.2256889,0-.4800635,.0092807-.6682079h-.0092807c-.0565277,.1316167-.3109023,.4986248-.4142551,.6589272l-1.007374,1.5245601h-.6306634l-1.1482713-1.5810878c-.1316167-.1788637-.2822166-.3670081-.4138333-.6023995h-.0189832c.0092807,.2071276,.0092807,.4517996,.0092807,.6209608v3.2098445h-1.4401904v-6.2028588Z"/><path class="uuid-2e2e0067-5bd1-46e6-9766-2bd5f1c9d57e" d="M86.6242934,45.8722973h3.7274524l-.0000003,.0000012c-.2065904,.6871322-.8392448,1.1575508-1.5567616,1.1575508h-.7305001v1.3085737h1.9485177v1.157552h-1.9485177v1.4216291h2.2687007v1.157552h-3.7088911v-6.2028588Z"/><path class="uuid-2e2e0067-5bd1-46e6-9766-2bd5f1c9d57e" d="M91.5742625,45.8722973h1.9957648c.5365912,0,.9504244,.0755109,1.279888,.2071276,.7627019,.3104804,1.0541991,.9318631,1.0541991,1.6190541,0,.7998246-.5268886,1.3646796-1.1858158,1.5718071v.0189832c.1881444,.1126335,.470361,.4420971,.7905439,1.0259353l.9791101,1.7599515h-1.6380373l-.7529994-1.4119266c-.3197611-.6023995-.5268886-.8280884-.6682079-.8563522h-.4142551v2.2682788h-1.4401904v-6.2028588Zm1.8919901,2.7766061c.2636552,0,.4235358-.0468252,.564855-.122336,.2256889-.1316167,.3767106-.3670081,.3767106-.687191,0-.3104804-.1603024-.5834163-.4332383-.715033-.122336-.0565277-.2636552-.094494-.4986248-.094494h-.4615021v1.6190541h.4517996Z"/><path class="uuid-2e2e0067-5bd1-46e6-9766-2bd5f1c9d57e" d="M102.3980487,51.6423396c-.7627019,.4138333-1.4777349,.5268886-2.1366621,.5268886-2.1463646,0-3.2566696-1.3178544-3.2566696-3.1343336,0-1.7789347,1.3174325-3.2284058,3.4165502-3.2284058,.6964717,0,1.2613267,.1130554,1.6941432,.2919191v1.3174325c-.517608-.2729359-1.0727605-.4138333-1.6565987-.4138333-1.3364157,0-1.9198321,.9504244-1.9198321,2.0139042,0,1.1579739,.7340162,1.9577984,1.9012707,1.9577984,.6492247,0,1.1010243-.1881444,1.5625265-.4610803l.3952719,1.12971Z"/><path class="uuid-2e2e0067-5bd1-46e6-9766-2bd5f1c9d57e" d="M103.3851739,45.8722973h3.7274524l-.0000003,.0000012c-.2065904,.6871322-.8392448,1.1575508-1.5567616,1.1575508h-.7305001v1.3085737h1.9485177v1.157552h-1.9485177v1.4216291h2.2687007v1.157552h-3.7088911v-6.2028588Z"/></g></g><g><path class="uuid-2e2e0067-5bd1-46e6-9766-2bd5f1c9d57e" d="M45.3955731,65.5418225c-.7690296,0-1.2874813-.2505779-1.6245382-.4754231l.3459157-.5960718c.2417191,.1813948,.6998465,.414677,1.2528897,.414677,.4927189,0,1.0714949-.2332822,1.0714949-.7951842,0-.9331287-1.3739602-1.1229604-2.0653698-1.8835531-.2417191-.2594368-.3973812-.5876348-.3973812-1.0284664,0-.8120582,.6222264-1.4604392,1.7110171-1.4604392,.6049306,0,1.0369034,.1472251,1.3132141,.2851695l-.008437,.7605927c-.3454938-.2159864-.8036212-.3800854-1.2701855-.3800854-.5273105,0-.9677202,.2159864-.9677202,.7171423,0,1.1925654,2.5057795,1.1837066,2.5057795,2.9120195,0,.9246917-.8120582,1.5296223-1.8666792,1.5296223Z"/><path class="uuid-2e2e0067-5bd1-46e6-9766-2bd5f1c9d57e" d="M50.2426112,60.0805731c-.1383663-.0691831-.3113241-.1126335-.5011559-.1126335-.3632115,0-.5273105,.2332822-.5273105,.656818v.7432969h1.0714949l-.2417191,.6222264h-.8297758v3.4650627h-.7690296v-3.4650627h-.5357475v-.6222264h.5357475v-.6741137c0-1.1145235,.7517338-1.3566644,1.2790443-1.3566644,.1898318,0,.4577055,.0430285,.6736919,.1556621l-.1552402,.5876348Z"/><path class="uuid-2e2e0067-5bd1-46e6-9766-2bd5f1c9d57e" d="M53.2558743,65.4553435l-.164099-.3889442c-.2594368,.242141-.6479591,.4754231-1.235594,.4754231-.6914095,0-1.2790443-.4838601-1.2790443-1.2701855,0-.820917,.5960718-1.3047771,1.6675667-1.3393687l.7951842-.0261546v-.1556621c0-.6306634-.3627896-.8555085-.8470716-.8555085-.5011559,0-.8382128,.1902536-1.0714949,.3543527l-.2851695-.5184517c.5100147-.3627896,.9681421-.4665643,1.4950307-.4665643,.8555085,0,1.4777349,.3627896,1.4777349,1.4174106v1.3739602c0,.9677202,.0261546,1.2528897,.0864789,1.399693h-.6395222Zm-.2159864-1.9358623l-.7432969,.0261546c-.6736919,.0257328-.9504244,.2505779-.9504244,.6652549,0,.3889442,.2505779,.6914095,.7517338,.6914095,.4754231,0,.7690296-.2248452,.9419875-.3973812v-.9854379Z"/><path class="uuid-2e2e0067-5bd1-46e6-9766-2bd5f1c9d57e" d="M57.3769113,65.4553435l-1.0887907-1.6245382-1.0887907,1.6245382h-.8297758l1.469298-2.1083983-1.3566644-1.9788908h.8728043l1.0196076,1.5380593,1.0369034-1.5380593h.8120582l-1.391256,2.0134824,1.4001148,2.0738067h-.8555085Z"/></g><rect class="uuid-2e2e0067-5bd1-46e6-9766-2bd5f1c9d57e" x="43.7493097" y="55.6317072" width="82.0904325" height=".196054"/></svg>